<svg width="170" height="51" viewBox="0 0 170 51" fill="none" xmlns="http://www.w3.org/2000/svg">
<path d="M169.055 44.6887C169.055 47.3807 166.891 49.5612 164.214 49.5612H5.79163C3.11609 49.5612 0.944336 47.3807 0.944336 44.6887V5.832C0.944336 3.1413 3.11609 0.953125 5.79163 0.953125H164.213C166.891 0.953125 169.054 3.1413 169.054 5.832L169.055 44.6887Z" fill="#030734"/>
<path d="M37.939 24.9843C37.9025 20.9141 41.2622 18.9339 41.4159 18.8417C39.5131 16.0596 36.5639 15.6795 35.5276 15.6492C33.0506 15.3878 30.6479 17.1356 29.3861 17.1356C28.0992 17.1356 26.1561 15.6745 24.062 15.7174C21.3672 15.7591 18.8461 17.3238 17.4635 19.7535C14.61 24.7077 16.7381 31.9881 19.472 35.9926C20.8396 37.9538 22.4376 40.1436 24.5292 40.0666C26.5755 39.9819 27.3399 38.7582 29.8093 38.7582C32.256 38.7582 32.9738 40.0666 35.107 40.0173C37.3031 39.9819 38.6858 38.0472 40.0055 36.0684C41.5858 33.8205 42.2205 31.6067 42.2457 31.493C42.1941 31.4753 37.9806 29.8627 37.939 24.9843Z" fill="#FAFAFA"/>
<path d="M33.9094 13.0149C35.01 11.6346 35.763 9.75673 35.554 7.85107C33.961 7.92179 31.9689 8.95607 30.8217 10.3061C29.8067 11.4957 28.9001 13.4455 29.1343 15.2792C30.9237 15.4131 32.761 14.3737 33.9094 13.0149Z" fill="#FAFAFA"/>
<path d="M67.553 39.7851H64.6933L63.1268 34.8486H57.6817L56.1895 39.7851H53.4053L58.7999 22.979H62.1319L67.553 39.7851ZM62.6545 32.7775L61.2379 28.3891C61.088 27.9408 60.8072 26.885 60.3929 25.2231H60.3425C60.1776 25.9379 59.9119 26.9936 59.5467 28.3891L58.1552 32.7775H62.6545Z" fill="#FAFAFA"/>
<path d="M81.4259 33.5769C81.4259 35.6379 80.8705 37.267 79.7599 38.4629C78.7651 39.5275 77.5297 40.0592 76.0551 40.0592C74.4634 40.0592 73.32 39.4858 72.6237 38.3392H72.5733V44.7229H69.8885V31.6561C69.8885 30.3604 69.8545 29.0306 69.7891 27.6668H72.1502L72.3 29.5876H72.3504C73.2457 28.1403 74.6045 27.418 76.4279 27.418C77.8534 27.418 79.0434 27.9825 79.9954 29.1127C80.9499 30.2442 81.4259 31.7319 81.4259 33.5769ZM78.6908 33.6754C78.6908 32.4959 78.4263 31.5235 77.8949 30.7582C77.3144 29.9601 76.5349 29.561 75.5577 29.561C74.8954 29.561 74.2934 29.7833 73.7557 30.2215C73.2168 30.6635 72.8642 31.2406 72.6992 31.9554C72.6161 32.2888 72.5745 32.5616 72.5745 32.7763V34.7968C72.5745 35.6783 72.844 36.4221 73.383 37.0296C73.922 37.637 74.6221 37.9401 75.4834 37.9401C76.4946 37.9401 77.2817 37.5486 77.8445 36.7682C78.4087 35.9865 78.6908 34.956 78.6908 33.6754Z" fill="#FAFAFA"/>
<path d="M95.324 33.5769C95.324 35.6379 94.7687 37.267 93.6568 38.4629C92.6632 39.5275 91.4279 40.0592 89.9533 40.0592C88.3616 40.0592 87.2182 39.4858 86.5231 38.3392H86.4727V44.7229H83.788V31.6561C83.788 30.3604 83.754 29.0306 83.6885 27.6668H86.0496L86.1994 29.5876H86.2498C87.1439 28.1403 88.5026 27.418 90.3273 27.418C91.7515 27.418 92.9415 27.9825 93.896 29.1127C94.8468 30.2442 95.324 31.7319 95.324 33.5769ZM92.5889 33.6754C92.5889 32.4959 92.3232 31.5235 91.7918 30.7582C91.2113 29.9601 90.4343 29.561 89.4559 29.561C88.7923 29.561 88.1916 29.7833 87.6526 30.2215C87.1137 30.6635 86.7623 31.2406 86.5974 31.9554C86.5155 32.2888 86.4727 32.5616 86.4727 32.7763V34.7968C86.4727 35.6783 86.7422 36.4221 87.2786 37.0296C87.8176 37.6357 88.5177 37.9401 89.3816 37.9401C90.3928 37.9401 91.1798 37.5486 91.7427 36.7682C92.3069 35.9865 92.5889 34.956 92.5889 33.6754Z" fill="#FAFAFA"/>
<path d="M110.863 35.072C110.863 36.5016 110.368 37.6647 109.375 38.5626C108.283 39.5438 106.763 40.0338 104.81 40.0338C103.007 40.0338 101.561 39.6853 100.467 38.9869L101.089 36.7428C102.268 37.4576 103.561 37.8162 104.97 37.8162C105.981 37.8162 106.768 37.5864 107.334 37.1292C107.896 36.6721 108.177 36.0583 108.177 35.293C108.177 34.6111 107.946 34.0365 107.481 33.5705C107.019 33.1045 106.247 32.6714 105.169 32.271C102.235 31.1736 100.769 29.566 100.769 27.452C100.769 26.0704 101.283 24.9376 102.312 24.0561C103.337 23.1734 104.704 22.7327 106.414 22.7327C107.939 22.7327 109.206 22.9991 110.217 23.5308L109.546 25.7256C108.602 25.2104 107.534 24.9528 106.339 24.9528C105.394 24.9528 104.656 25.1864 104.127 25.6511C103.68 26.0666 103.456 26.573 103.456 27.1729C103.456 27.8371 103.712 28.3865 104.226 28.8184C104.673 29.2174 105.485 29.6493 106.664 30.1153C108.105 30.6975 109.165 31.3782 109.846 32.1586C110.525 32.9366 110.863 33.9102 110.863 35.072Z" fill="#FAFAFA"/>
<path d="M119.74 29.687H116.781V35.5707C116.781 37.0672 117.302 37.8148 118.347 37.8148C118.827 37.8148 119.225 37.7731 119.54 37.6898L119.614 39.7343C119.085 39.9326 118.389 40.0324 117.526 40.0324C116.466 40.0324 115.637 39.7078 115.039 39.06C114.444 38.4109 114.144 37.3223 114.144 35.793V29.6845H112.381V27.6639H114.144V25.4451L116.781 24.647V27.6639H119.74V29.687Z" fill="#FAFAFA"/>
<path d="M133.093 33.6259C133.093 35.4886 132.561 37.0179 131.501 38.2138C130.389 39.4451 128.913 40.0589 127.073 40.0589C125.3 40.0589 123.889 39.4691 122.836 38.2896C121.783 37.1101 121.257 35.6212 121.257 33.8267C121.257 31.9488 121.798 30.4107 122.885 29.2147C123.969 28.0175 125.433 27.4189 127.272 27.4189C129.045 27.4189 130.472 28.0087 131.549 29.1895C132.579 30.3349 133.093 31.8137 133.093 33.6259ZM130.307 33.713C130.307 32.5954 130.069 31.6369 129.587 30.8375C129.024 29.8702 128.219 29.3877 127.177 29.3877C126.097 29.3877 125.278 29.8714 124.715 30.8375C124.232 31.6382 123.994 32.6118 123.994 33.7635C123.994 34.8812 124.232 35.8397 124.715 36.6378C125.295 37.6051 126.106 38.0876 127.153 38.0876C128.178 38.0876 128.982 37.595 129.563 36.6125C130.058 35.798 130.307 34.8294 130.307 33.713Z" fill="#FAFAFA"/>
<path d="M141.819 30.0346C141.553 29.9854 141.27 29.9601 140.972 29.9601C140.028 29.9601 139.298 30.3175 138.784 31.0335C138.337 31.665 138.113 32.4631 138.113 33.4266V39.7851H135.429L135.454 31.4831C135.454 30.0864 135.42 28.8147 135.354 27.668H137.692L137.79 29.9866H137.864C138.148 29.1898 138.595 28.5482 139.207 28.0671C139.805 27.6339 140.451 27.418 141.147 27.418C141.395 27.418 141.62 27.4356 141.819 27.4672V30.0346Z" fill="#FAFAFA"/>
<path d="M153.826 33.1524C153.826 33.6348 153.794 34.0414 153.728 34.3736H145.673C145.705 35.5708 146.094 36.4863 146.842 37.1178C147.521 37.6823 148.398 37.9651 149.476 37.9651C150.669 37.9651 151.757 37.7744 152.735 37.3918L153.156 39.2608C152.013 39.7609 150.663 40.0097 149.105 40.0097C147.231 40.0097 145.76 39.4566 144.69 38.3516C143.622 37.2466 143.087 35.7627 143.087 33.9013C143.087 32.0739 143.584 30.5522 144.58 29.3386C145.623 28.0429 147.032 27.395 148.805 27.395C150.547 27.395 151.865 28.0429 152.761 29.3386C153.469 30.3678 153.826 31.6407 153.826 33.1524ZM151.266 32.454C151.283 31.6559 151.108 30.9664 150.744 30.3842C150.28 29.6353 149.566 29.2615 148.605 29.2615C147.727 29.2615 147.013 29.6265 146.468 30.3589C146.021 30.9411 145.755 31.6395 145.673 32.4528H151.266V32.454Z" fill="#FAFAFA"/>
<path d="M61.7663 12.6399C61.7663 14.1263 61.3218 15.2452 60.434 15.9966C59.6117 16.6899 58.4431 17.0372 56.9295 17.0372C56.179 17.0372 55.5367 17.0044 54.999 16.9387V8.81726C55.7004 8.7036 56.456 8.64551 57.272 8.64551C58.7138 8.64551 59.8006 8.95996 60.5335 9.58886C61.3545 10.2999 61.7663 11.3165 61.7663 12.6399ZM60.3748 12.6765C60.3748 11.713 60.1204 10.9742 59.6117 10.459C59.103 9.94499 58.36 9.68736 57.3815 9.68736C56.966 9.68736 56.6121 9.71515 56.3187 9.77324V15.9473C56.4812 15.9726 56.7784 15.984 57.2103 15.984C58.2202 15.984 58.9997 15.7024 59.5487 15.1391C60.0978 14.5759 60.3748 13.755 60.3748 12.6765Z" fill="#FAFAFA"/>
<path d="M69.1451 13.9382C69.1451 14.8538 68.8844 15.6039 68.3631 16.1924C67.8165 16.7973 67.0925 17.0991 66.1883 17.0991C65.3169 17.0991 64.6231 16.8099 64.1055 16.229C63.5892 15.6494 63.3311 14.9182 63.3311 14.0367C63.3311 13.1148 63.5968 12.3584 64.1307 11.7711C64.6646 11.1839 65.3824 10.8896 66.2865 10.8896C67.1579 10.8896 67.8581 11.1788 68.3882 11.7585C68.8919 12.3217 69.1451 13.0491 69.1451 13.9382ZM67.7762 13.9811C67.7762 13.4318 67.6579 12.9607 67.4224 12.568C67.1454 12.0932 66.7512 11.8557 66.2387 11.8557C65.7085 11.8557 65.3056 12.0932 65.0285 12.568C64.7918 12.9607 64.6747 13.4394 64.6747 14.0051C64.6747 14.5545 64.7931 15.0255 65.0285 15.4183C65.3144 15.8931 65.7123 16.1305 66.2261 16.1305C66.7298 16.1305 67.1252 15.8893 67.4098 15.4056C67.6541 15.0053 67.7762 14.5305 67.7762 13.9811Z" fill="#FAFAFA"/>
<path d="M79.0373 11.011L77.1799 16.9641H75.971L75.2016 14.379C75.0064 13.7337 74.8477 13.0922 74.7243 12.4557H74.7004C74.5858 13.1099 74.4271 13.7501 74.2231 14.379L73.4059 16.9641H72.1831L70.4365 11.011H71.7927L72.4639 13.841C72.6264 14.5104 72.7599 15.1481 72.8669 15.7518H72.8908C72.989 15.2542 73.1515 14.6202 73.3807 13.8537L74.2231 11.0122H75.2985L76.1057 13.7931C76.3009 14.4712 76.4596 15.1241 76.5817 15.753H76.6182C76.7076 15.1405 76.8424 14.4876 77.0212 13.7931L77.7415 11.0122H79.0373V11.011Z" fill="#FAFAFA"/>
<path d="M85.879 16.9639H84.5593V13.5542C84.5593 12.5035 84.1614 11.9781 83.363 11.9781C82.9714 11.9781 82.6553 12.1221 82.4098 12.4113C82.1667 12.7005 82.0433 13.0414 82.0433 13.4317V16.9626H80.7236V12.7118C80.7236 12.189 80.7073 11.622 80.6758 11.0082H81.8356L81.8973 11.939H81.9338C82.0874 11.6498 82.3166 11.4111 82.6176 11.2204C82.9752 10.9981 83.3756 10.8857 83.8138 10.8857C84.3679 10.8857 84.8288 11.0651 85.1952 11.425C85.6511 11.8657 85.879 12.5237 85.879 13.3976V16.9639Z" fill="#FAFAFA"/>
<path d="M89.5177 16.964H88.1992V8.2793H89.5177V16.964Z" fill="#FAFAFA"/>
<path d="M97.2876 13.9382C97.2876 14.8538 97.027 15.6039 96.5056 16.1924C95.9591 16.7973 95.2338 17.0991 94.3309 17.0991C93.4582 17.0991 92.7644 16.8099 92.2481 16.229C91.7318 15.6494 91.4736 14.9182 91.4736 14.0367C91.4736 13.1148 91.7393 12.3584 92.2733 11.7711C92.8072 11.1839 93.525 10.8896 94.4279 10.8896C95.3005 10.8896 95.9994 11.1788 96.5308 11.7585C97.0345 12.3217 97.2876 13.0491 97.2876 13.9382ZM95.9176 13.9811C95.9176 13.4318 95.7992 12.9607 95.5637 12.568C95.2879 12.0932 94.8925 11.8557 94.3813 11.8557C93.8499 11.8557 93.4469 12.0932 93.1711 12.568C92.9344 12.9607 92.8173 13.4394 92.8173 14.0051C92.8173 14.5545 92.9356 15.0255 93.1711 15.4183C93.457 15.8931 93.8549 16.1305 94.3687 16.1305C94.8724 16.1305 95.2665 15.8893 95.5511 15.4056C95.7967 15.0053 95.9176 14.5305 95.9176 13.9811Z" fill="#FAFAFA"/>
<path d="M103.676 16.964H102.491L102.393 16.2783H102.356C101.951 16.8251 101.373 17.0991 100.622 17.0991C100.062 17.0991 99.6087 16.9185 99.2674 16.5599C98.9576 16.2341 98.8027 15.8287 98.8027 15.3475C98.8027 14.6201 99.105 14.0657 99.7132 13.6818C100.32 13.2979 101.174 13.1098 102.273 13.1186V13.0075C102.273 12.2232 101.863 11.8317 101.04 11.8317C100.455 11.8317 99.9386 11.9795 99.4928 12.2725L99.2246 11.4036C99.7761 11.0614 100.457 10.8896 101.261 10.8896C102.812 10.8896 103.59 11.7105 103.59 13.3522V15.5445C103.59 16.1393 103.619 16.6129 103.676 16.964ZM102.306 14.9182V14.0001C100.85 13.9748 100.122 14.3751 100.122 15.1998C100.122 15.5104 100.206 15.7428 100.376 15.8981C100.546 16.0535 100.762 16.1305 101.02 16.1305C101.31 16.1305 101.581 16.0383 101.827 15.8552C102.076 15.6708 102.228 15.4372 102.285 15.1505C102.298 15.0861 102.306 15.0078 102.306 14.9182Z" fill="#FAFAFA"/>
<path d="M111.173 16.964H110.002L109.941 16.008H109.904C109.53 16.7354 108.893 17.0991 107.998 17.0991C107.282 17.0991 106.687 16.8175 106.215 16.2542C105.742 15.691 105.507 14.9598 105.507 14.0619C105.507 13.0984 105.762 12.3179 106.276 11.7218C106.774 11.1662 107.383 10.8884 108.108 10.8884C108.906 10.8884 109.463 11.1573 109.781 11.6966H109.806V8.2793H111.127V15.3601C111.127 15.9398 111.142 16.474 111.173 16.964ZM109.806 14.4534V13.4608C109.806 13.2891 109.793 13.1501 109.769 13.0441C109.695 12.7258 109.535 12.4581 109.292 12.2421C109.047 12.0262 108.751 11.9176 108.409 11.9176C107.917 11.9176 107.532 12.1133 107.248 12.5061C106.968 12.8988 106.825 13.4002 106.825 14.0127C106.825 14.6012 106.96 15.0785 107.231 15.446C107.517 15.8375 107.902 16.0332 108.384 16.0332C108.817 16.0332 109.164 15.8703 109.427 15.5433C109.681 15.2414 109.806 14.8777 109.806 14.4534Z" fill="#FAFAFA"/>
<path d="M122.461 13.9382C122.461 14.8538 122.201 15.6039 121.679 16.1924C121.133 16.7973 120.41 17.0991 119.505 17.0991C118.635 17.0991 117.941 16.8099 117.422 16.229C116.906 15.6494 116.647 14.9182 116.647 14.0367C116.647 13.1148 116.913 12.3584 117.447 11.7711C117.981 11.1839 118.699 10.8896 119.604 10.8896C120.474 10.8896 121.176 11.1788 121.705 11.7585C122.208 12.3217 122.461 13.0491 122.461 13.9382ZM121.094 13.9811C121.094 13.4318 120.976 12.9607 120.74 12.568C120.462 12.0932 120.069 11.8557 119.555 11.8557C119.026 11.8557 118.623 12.0932 118.345 12.568C118.108 12.9607 117.991 13.4394 117.991 14.0051C117.991 14.5545 118.109 15.0255 118.345 15.4183C118.631 15.8931 119.029 16.1305 119.542 16.1305C120.046 16.1305 120.443 15.8893 120.727 15.4056C120.97 15.0053 121.094 14.5305 121.094 13.9811Z" fill="#FAFAFA"/>
<path d="M129.556 16.9639H128.238V13.5542C128.238 12.5035 127.84 11.9781 127.04 11.9781C126.649 11.9781 126.333 12.1221 126.088 12.4113C125.844 12.7005 125.722 13.0414 125.722 13.4317V16.9626H124.401V12.7118C124.401 12.189 124.386 11.622 124.354 11.0082H125.513L125.575 11.939H125.611C125.766 11.6498 125.995 11.4111 126.295 11.2204C126.654 10.9981 127.053 10.8857 127.493 10.8857C128.045 10.8857 128.506 11.0651 128.873 11.425C129.33 11.8657 129.556 12.5237 129.556 13.3976V16.9639Z" fill="#FAFAFA"/>
<path d="M138.438 12.0023H136.984V14.8942C136.984 15.6292 137.243 15.9967 137.754 15.9967C137.991 15.9967 138.187 15.9765 138.342 15.9348L138.376 16.9388C138.115 17.0373 137.773 17.0865 137.351 17.0865C136.83 17.0865 136.424 16.9274 136.131 16.6092C135.836 16.2909 135.69 15.7555 135.69 15.0041V12.0023H134.822V11.0109H135.69V9.91981L136.983 9.52832V11.0097H138.436V12.0023H138.438Z" fill="#FAFAFA"/>
<path d="M145.424 16.964H144.103V13.5795C144.103 12.5124 143.705 11.9782 142.908 11.9782C142.296 11.9782 141.878 12.2876 141.649 12.9064C141.61 13.0365 141.587 13.1956 141.587 13.3825V16.9627H140.269V8.2793H141.587V11.8671H141.612C142.028 11.2142 142.623 10.8884 143.395 10.8884C143.942 10.8884 144.394 11.0677 144.753 11.4276C145.2 11.8759 145.424 12.5427 145.424 13.4242V16.964Z" fill="#FAFAFA"/>
<path d="M152.631 13.7057C152.631 13.9431 152.613 14.1427 152.582 14.3056H148.624C148.642 14.8941 148.831 15.3424 149.197 15.653C149.532 15.9309 149.964 16.0698 150.493 16.0698C151.078 16.0698 151.612 15.9763 152.093 15.7882L152.3 16.7075C151.737 16.9525 151.075 17.075 150.308 17.075C149.388 17.075 148.664 16.8035 148.141 16.2605C147.614 15.7174 147.354 14.9888 147.354 14.0745C147.354 13.1766 147.597 12.429 148.086 11.8329C148.598 11.1964 149.289 10.8782 150.162 10.8782C151.015 10.8782 151.664 11.1964 152.102 11.8329C152.456 12.338 152.631 12.9631 152.631 13.7057ZM151.372 13.3635C151.382 12.9707 151.295 12.6323 151.116 12.3469C150.887 11.9794 150.538 11.795 150.066 11.795C149.635 11.795 149.284 11.9743 149.016 12.3342C148.797 12.6209 148.667 12.9632 148.624 13.3635H151.372Z" fill="#FAFAFA"/>
</svg>
