<svg width="171" height="51" viewBox="0 0 171 51" fill="none" xmlns="http://www.w3.org/2000/svg">
<path d="M169.556 44.6887C169.556 47.3807 167.392 49.5612 164.715 49.5612H6.29212C3.61657 49.5612 1.44482 47.3807 1.44482 44.6887V5.832C1.44482 3.1413 3.61657 0.953125 6.29212 0.953125H164.714C167.392 0.953125 169.555 3.1413 169.555 5.832L169.556 44.6887Z" fill="#FAFAFA"/>
<path d="M38.439 24.9843C38.4025 20.9141 41.7622 18.9339 41.9159 18.8417C40.0131 16.0596 37.0639 15.6795 36.0276 15.6492C33.5506 15.3878 31.1479 17.1356 29.8861 17.1356C28.5992 17.1356 26.6561 15.6745 24.562 15.7174C21.8672 15.7591 19.3461 17.3238 17.9635 19.7535C15.11 24.7077 17.2381 31.9881 19.972 35.9926C21.3396 37.9538 22.9376 40.1436 25.0292 40.0666C27.0755 39.9819 27.8399 38.7582 30.3093 38.7582C32.756 38.7582 33.4738 40.0666 35.607 40.0173C37.8031 39.9819 39.1858 38.0472 40.5055 36.0684C42.0858 33.8205 42.7205 31.6067 42.7457 31.493C42.6941 31.4753 38.4806 29.8627 38.439 24.9843Z" fill="#030734"/>
<path d="M34.4094 13.0149C35.51 11.6346 36.263 9.75673 36.054 7.85107C34.461 7.92179 32.4689 8.95607 31.3217 10.3061C30.3067 11.4957 29.4001 13.4455 29.6343 15.2792C31.4237 15.4131 33.261 14.3737 34.4094 13.0149Z" fill="#030734"/>
<path d="M68.0535 39.7851H65.1938L63.6272 34.8486H58.1822L56.69 39.7851H53.9058L59.3004 22.979H62.6324L68.0535 39.7851ZM63.155 32.7775L61.7384 28.3891C61.5885 27.9408 61.3077 26.885 60.8934 25.2231H60.843C60.6781 25.9379 60.4124 26.9936 60.0472 28.3891L58.6557 32.7775H63.155Z" fill="#030734"/>
<path d="M81.9264 33.5769C81.9264 35.6379 81.371 37.267 80.2604 38.4629C79.2655 39.5275 78.0302 40.0592 76.5556 40.0592C74.9639 40.0592 73.8205 39.4858 73.1241 38.3392H73.0738V44.7229H70.389V31.6561C70.389 30.3604 70.355 29.0306 70.2896 27.6668H72.6507L72.8005 29.5876H72.8509C73.7462 28.1403 75.105 27.418 76.9284 27.418C78.3538 27.418 79.5438 27.9825 80.4958 29.1127C81.4504 30.2442 81.9264 31.7319 81.9264 33.5769ZM79.1913 33.6754C79.1913 32.4959 78.9268 31.5235 78.3954 30.7582C77.8149 29.9601 77.0354 29.561 76.0582 29.561C75.3958 29.561 74.7939 29.7833 74.2562 30.2215C73.7173 30.6635 73.3647 31.2406 73.1997 31.9554C73.1166 32.2888 73.075 32.5616 73.075 32.7763V34.7968C73.075 35.6783 73.3445 36.4221 73.8835 37.0296C74.4224 37.637 75.1226 37.9401 75.9839 37.9401C76.9951 37.9401 77.7821 37.5486 78.345 36.7682C78.9092 35.9865 79.1913 34.956 79.1913 33.6754Z" fill="#030734"/>
<path d="M95.825 33.5769C95.825 35.6379 95.2697 37.267 94.1578 38.4629C93.1642 39.5275 91.9289 40.0592 90.4543 40.0592C88.8626 40.0592 87.7192 39.4858 87.024 38.3392H86.9737V44.7229H84.2889V31.6561C84.2889 30.3604 84.2549 29.0306 84.1895 27.6668H86.5506L86.7004 29.5876H86.7508C87.6449 28.1403 89.0036 27.418 90.8283 27.418C92.2525 27.418 93.4425 27.9825 94.397 29.1127C95.3478 30.2442 95.825 31.7319 95.825 33.5769ZM93.0899 33.6754C93.0899 32.4959 92.8242 31.5235 92.2928 30.7582C91.7123 29.9601 90.9353 29.561 89.9569 29.561C89.2932 29.561 88.6926 29.7833 88.1536 30.2215C87.6146 30.6635 87.2633 31.2406 87.0983 31.9554C87.0165 32.2888 86.9737 32.5616 86.9737 32.7763V34.7968C86.9737 35.6783 87.2432 36.4221 87.7796 37.0296C88.3186 37.6357 89.0187 37.9401 89.8826 37.9401C90.8938 37.9401 91.6808 37.5486 92.2437 36.7682C92.8078 35.9865 93.0899 34.956 93.0899 33.6754Z" fill="#030734"/>
<path d="M111.364 35.0723C111.364 36.5018 110.869 37.6649 109.876 38.5628C108.784 39.5441 107.264 40.0341 105.311 40.0341C103.508 40.0341 102.062 39.6855 100.968 38.9871L101.59 36.743C102.769 37.4578 104.062 37.8165 105.471 37.8165C106.482 37.8165 107.269 37.5866 107.835 37.1295C108.397 36.6723 108.678 36.0586 108.678 35.2933C108.678 34.6113 108.447 34.0367 107.982 33.5708C107.52 33.1048 106.748 32.6716 105.67 32.2713C102.736 31.1739 101.27 29.5662 101.27 27.4522C101.27 26.0706 101.784 24.9379 102.813 24.0564C103.838 23.1736 105.205 22.7329 106.915 22.7329C108.44 22.7329 109.707 22.9994 110.718 23.531L110.047 25.7259C109.103 25.2106 108.035 24.953 106.84 24.953C105.895 24.953 105.157 25.1866 104.628 25.6514C104.181 26.0669 103.957 26.5733 103.957 27.1731C103.957 27.8374 104.213 28.3867 104.727 28.8186C105.174 29.2177 105.986 29.6496 107.165 30.1156C108.606 30.6978 109.665 31.3784 110.347 32.1589C111.025 32.9368 111.364 33.9105 111.364 35.0723Z" fill="#030734"/>
<path d="M120.241 29.6875H117.282V35.5712C117.282 37.0677 117.803 37.8153 118.848 37.8153C119.328 37.8153 119.726 37.7736 120.041 37.6902L120.115 39.7348C119.586 39.9331 118.89 40.0329 118.027 40.0329C116.967 40.0329 116.138 39.7083 115.54 39.0605C114.945 38.4113 114.645 37.3228 114.645 35.7934V29.685H112.882V27.6644H114.645V25.4456L117.282 24.6475V27.6644H120.241V29.6875Z" fill="#030734"/>
<path d="M133.593 33.6264C133.593 35.4891 133.061 37.0184 132.001 38.2143C130.889 39.4456 129.413 40.0594 127.573 40.0594C125.8 40.0594 124.389 39.4696 123.336 38.2901C122.283 37.1106 121.757 35.6217 121.757 33.8272C121.757 31.9493 122.298 30.4111 123.385 29.2152C124.469 28.018 125.933 27.4194 127.772 27.4194C129.545 27.4194 130.972 28.0092 132.049 29.19C133.079 30.3354 133.593 31.8142 133.593 33.6264ZM130.807 33.7135C130.807 32.5959 130.569 31.6374 130.087 30.838C129.524 29.8706 128.719 29.3882 127.677 29.3882C126.597 29.3882 125.778 29.8719 125.215 30.838C124.732 31.6386 124.494 32.6123 124.494 33.764C124.494 34.8817 124.732 35.8402 125.215 36.6383C125.795 37.6056 126.606 38.088 127.653 38.088C128.678 38.088 129.482 37.5955 130.063 36.613C130.558 35.7985 130.807 34.8299 130.807 33.7135Z" fill="#030734"/>
<path d="M142.319 30.0346C142.053 29.9854 141.77 29.9601 141.473 29.9601C140.528 29.9601 139.798 30.3175 139.284 31.0335C138.837 31.665 138.613 32.4631 138.613 33.4266V39.7851H135.93L135.955 31.4831C135.955 30.0864 135.921 28.8147 135.854 27.668H138.192L138.291 29.9866H138.365C138.648 29.1898 139.095 28.5482 139.707 28.0671C140.306 27.6339 140.952 27.418 141.648 27.418C141.896 27.418 142.12 27.4356 142.319 27.4672V30.0346Z" fill="#030734"/>
<path d="M154.326 33.1529C154.326 33.6353 154.295 34.0419 154.228 34.3741H146.174C146.205 35.5712 146.595 36.4868 147.343 37.1182C148.021 37.6827 148.899 37.9656 149.977 37.9656C151.169 37.9656 152.257 37.7749 153.236 37.3923L153.656 39.2613C152.513 39.7614 151.163 40.0102 149.605 40.0102C147.732 40.0102 146.261 39.4571 145.19 38.3521C144.123 37.2471 143.587 35.7632 143.587 33.9017C143.587 32.0744 144.085 30.5526 145.081 29.339C146.124 28.0434 147.533 27.3955 149.306 27.3955C151.047 27.3955 152.366 28.0434 153.261 29.339C153.97 30.3683 154.326 31.6412 154.326 33.1529ZM151.766 32.4545C151.784 31.6564 151.609 30.9669 151.245 30.3847C150.78 29.6358 150.066 29.262 149.105 29.262C148.228 29.262 147.514 29.627 146.969 30.3594C146.521 30.9416 146.256 31.64 146.174 32.4532H151.766V32.4545Z" fill="#030734"/>
<path d="M62.2668 12.6399C62.2668 14.1263 61.8223 15.2452 60.9345 15.9966C60.1122 16.6899 58.9436 17.0372 57.43 17.0372C56.6794 17.0372 56.0372 17.0044 55.4995 16.9387V8.81726C56.2009 8.7036 56.9565 8.64551 57.7725 8.64551C59.2143 8.64551 60.3011 8.95996 61.034 9.58886C61.855 10.2999 62.2668 11.3165 62.2668 12.6399ZM60.8753 12.6765C60.8753 11.713 60.6209 10.9742 60.1122 10.459C59.6034 9.94499 58.8605 9.68736 57.882 9.68736C57.4665 9.68736 57.1126 9.71515 56.8192 9.77324V15.9473C56.9817 15.9726 57.2788 15.984 57.7108 15.984C58.7207 15.984 59.5002 15.7024 60.0492 15.1391C60.5983 14.5759 60.8753 13.755 60.8753 12.6765Z" fill="#030734"/>
<path d="M69.6451 13.9382C69.6451 14.8538 69.3844 15.6039 68.8631 16.1924C68.3165 16.7973 67.5925 17.0991 66.6883 17.0991C65.8169 17.0991 65.1231 16.8099 64.6055 16.229C64.0892 15.6494 63.8311 14.9182 63.8311 14.0367C63.8311 13.1148 64.0968 12.3584 64.6307 11.7711C65.1646 11.1839 65.8824 10.8896 66.7865 10.8896C67.6579 10.8896 68.3581 11.1788 68.8882 11.7585C69.3919 12.3217 69.6451 13.0491 69.6451 13.9382ZM68.2762 13.9811C68.2762 13.4318 68.1579 12.9607 67.9224 12.568C67.6454 12.0932 67.2512 11.8557 66.7387 11.8557C66.2085 11.8557 65.8056 12.0932 65.5285 12.568C65.2918 12.9607 65.1747 13.4394 65.1747 14.0051C65.1747 14.5545 65.2931 15.0255 65.5285 15.4183C65.8144 15.8931 66.2123 16.1305 66.7261 16.1305C67.2298 16.1305 67.6252 15.8893 67.9098 15.4056C68.1541 15.0053 68.2762 14.5305 68.2762 13.9811Z" fill="#030734"/>
<path d="M79.5377 11.0107L77.6803 16.9639H76.4715L75.702 14.3788C75.5069 13.7335 75.3482 13.0919 75.2248 12.4555H75.2009C75.0863 13.1096 74.9276 13.7499 74.7236 14.3788L73.9063 16.9639H72.6836L70.937 11.0107H72.2932L72.9644 13.8408C73.1269 14.5101 73.2603 15.1479 73.3674 15.7515H73.3913C73.4895 15.2539 73.652 14.62 73.8812 13.8534L74.7236 11.012H75.799L76.6062 13.7928C76.8014 14.471 76.96 15.1239 77.0822 15.7528H77.1187C77.2081 15.1403 77.3429 14.4874 77.5217 13.7928L78.242 11.012H79.5377V11.0107Z" fill="#030734"/>
<path d="M86.379 16.9639H85.0593V13.5542C85.0593 12.5035 84.6614 11.9781 83.863 11.9781C83.4714 11.9781 83.1553 12.1221 82.9098 12.4113C82.6667 12.7005 82.5433 13.0414 82.5433 13.4317V16.9626H81.2236V12.7118C81.2236 12.189 81.2073 11.622 81.1758 11.0082H82.3356L82.3973 11.939H82.4338C82.5874 11.6498 82.8166 11.4111 83.1176 11.2204C83.4752 10.9981 83.8756 10.8857 84.3138 10.8857C84.8679 10.8857 85.3288 11.0651 85.6952 11.425C86.1511 11.8657 86.379 12.5237 86.379 13.3976V16.9639Z" fill="#030734"/>
<path d="M90.0186 16.964H88.7002V8.2793H90.0186V16.964Z" fill="#030734"/>
<path d="M97.7886 13.9382C97.7886 14.8538 97.5279 15.6039 97.0066 16.1924C96.4601 16.7973 95.7348 17.0991 94.8319 17.0991C93.9592 17.0991 93.2653 16.8099 92.7491 16.229C92.2328 15.6494 91.9746 14.9182 91.9746 14.0367C91.9746 13.1148 92.2403 12.3584 92.7742 11.7711C93.3082 11.1839 94.0259 10.8896 94.9288 10.8896C95.8015 10.8896 96.5004 11.1788 97.0318 11.7585C97.5355 12.3217 97.7886 13.0491 97.7886 13.9382ZM96.4185 13.9811C96.4185 13.4318 96.3002 12.9607 96.0647 12.568C95.7889 12.0932 95.3935 11.8557 94.8822 11.8557C94.3508 11.8557 93.9479 12.0932 93.6721 12.568C93.4353 12.9607 93.3182 13.4394 93.3182 14.0051C93.3182 14.5545 93.4366 15.0255 93.6721 15.4183C93.9579 15.8931 94.3559 16.1305 94.8697 16.1305C95.3734 16.1305 95.7675 15.8893 96.0521 15.4056C96.2976 15.0053 96.4185 14.5305 96.4185 13.9811Z" fill="#030734"/>
<path d="M104.176 16.964H102.991L102.893 16.2783H102.856C102.451 16.8251 101.873 17.0991 101.122 17.0991C100.562 17.0991 100.109 16.9185 99.7674 16.5599C99.4576 16.2341 99.3027 15.8287 99.3027 15.3475C99.3027 14.6201 99.605 14.0657 100.213 13.6818C100.82 13.2979 101.674 13.1098 102.773 13.1186V13.0075C102.773 12.2232 102.363 11.8317 101.54 11.8317C100.955 11.8317 100.439 11.9795 99.9928 12.2725L99.7246 11.4036C100.276 11.0614 100.957 10.8896 101.761 10.8896C103.312 10.8896 104.09 11.7105 104.09 13.3522V15.5445C104.09 16.1393 104.119 16.6129 104.176 16.964ZM102.806 14.9182V14.0001C101.35 13.9748 100.622 14.3751 100.622 15.1998C100.622 15.5104 100.706 15.7428 100.876 15.8981C101.046 16.0535 101.262 16.1305 101.52 16.1305C101.81 16.1305 102.081 16.0383 102.327 15.8552C102.576 15.6708 102.728 15.4372 102.785 15.1505C102.798 15.0861 102.806 15.0078 102.806 14.9182Z" fill="#030734"/>
<path d="M111.674 16.964H110.503L110.442 16.008H110.405C110.031 16.7354 109.394 17.0991 108.499 17.0991C107.783 17.0991 107.188 16.8175 106.716 16.2542C106.243 15.691 106.008 14.9598 106.008 14.0619C106.008 13.0984 106.263 12.3179 106.777 11.7218C107.275 11.1662 107.884 10.8884 108.609 10.8884C109.407 10.8884 109.964 11.1573 110.282 11.6966H110.307V8.2793H111.628V15.3601C111.628 15.9398 111.643 16.474 111.674 16.964ZM110.307 14.4534V13.4608C110.307 13.2891 110.294 13.1501 110.27 13.0441C110.196 12.7258 110.036 12.4581 109.793 12.2421C109.548 12.0262 109.252 11.9176 108.91 11.9176C108.418 11.9176 108.033 12.1133 107.749 12.5061C107.469 12.8988 107.326 13.4002 107.326 14.0127C107.326 14.6012 107.461 15.0785 107.732 15.446C108.018 15.8375 108.403 16.0332 108.885 16.0332C109.318 16.0332 109.665 15.8703 109.928 15.5433C110.182 15.2414 110.307 14.8777 110.307 14.4534Z" fill="#030734"/>
<path d="M122.961 13.9382C122.961 14.8538 122.701 15.6039 122.179 16.1924C121.633 16.7973 120.91 17.0991 120.005 17.0991C119.135 17.0991 118.441 16.8099 117.922 16.229C117.406 15.6494 117.147 14.9182 117.147 14.0367C117.147 13.1148 117.413 12.3584 117.947 11.7711C118.481 11.1839 119.199 10.8896 120.104 10.8896C120.974 10.8896 121.676 11.1788 122.205 11.7585C122.708 12.3217 122.961 13.0491 122.961 13.9382ZM121.594 13.9811C121.594 13.4318 121.476 12.9607 121.24 12.568C120.962 12.0932 120.569 11.8557 120.055 11.8557C119.526 11.8557 119.123 12.0932 118.845 12.568C118.608 12.9607 118.491 13.4394 118.491 14.0051C118.491 14.5545 118.609 15.0255 118.845 15.4183C119.131 15.8931 119.529 16.1305 120.042 16.1305C120.546 16.1305 120.943 15.8893 121.227 15.4056C121.47 15.0053 121.594 14.5305 121.594 13.9811Z" fill="#030734"/>
<path d="M130.056 16.9639H128.738V13.5542C128.738 12.5035 128.34 11.9781 127.54 11.9781C127.149 11.9781 126.833 12.1221 126.588 12.4113C126.344 12.7005 126.222 13.0414 126.222 13.4317V16.9626H124.901V12.7118C124.901 12.189 124.886 11.622 124.854 11.0082H126.013L126.075 11.939H126.111C126.266 11.6498 126.495 11.4111 126.795 11.2204C127.154 10.9981 127.553 10.8857 127.993 10.8857C128.545 10.8857 129.006 11.0651 129.373 11.425C129.83 11.8657 130.056 12.5237 130.056 13.3976V16.9639Z" fill="#030734"/>
<path d="M138.939 12.0023H137.485V14.8942C137.485 15.6292 137.744 15.9967 138.255 15.9967C138.492 15.9967 138.688 15.9765 138.843 15.9348L138.877 16.9388C138.616 17.0373 138.274 17.0865 137.852 17.0865C137.33 17.0865 136.925 16.9274 136.632 16.6092C136.337 16.2909 136.191 15.7555 136.191 15.0041V12.0023H135.323V11.0109H136.191V9.91981L137.484 9.52832V11.0097H138.937V12.0023H138.939Z" fill="#030734"/>
<path d="M145.925 16.964H144.604V13.5795C144.604 12.5124 144.206 11.9782 143.409 11.9782C142.797 11.9782 142.379 12.2876 142.15 12.9064C142.111 13.0365 142.088 13.1956 142.088 13.3825V16.9627H140.77V8.2793H142.088V11.8671H142.113C142.529 11.2142 143.124 10.8884 143.896 10.8884C144.443 10.8884 144.895 11.0677 145.254 11.4276C145.701 11.8759 145.925 12.5427 145.925 13.4242V16.964Z" fill="#030734"/>
<path d="M153.132 13.7055C153.132 13.9429 153.114 14.1424 153.082 14.3053H149.125C149.142 14.8938 149.331 15.3421 149.698 15.6528C150.033 15.9306 150.464 16.0695 150.993 16.0695C151.579 16.0695 152.113 15.9761 152.594 15.7879L152.8 16.7073C152.237 16.9523 151.575 17.0748 150.808 17.0748C149.889 17.0748 149.165 16.8033 148.641 16.2602C148.115 15.7172 147.854 14.9885 147.854 14.0742C147.854 13.1763 148.097 12.4287 148.587 11.8326C149.098 11.1962 149.789 10.8779 150.662 10.8779C151.516 10.8779 152.164 11.1962 152.603 11.8326C152.957 12.3378 153.132 12.9629 153.132 13.7055ZM151.872 13.3632C151.882 12.9705 151.795 12.632 151.617 12.3466C151.387 11.9791 151.039 11.7948 150.566 11.7948C150.136 11.7948 149.784 11.9741 149.516 12.334C149.297 12.6207 149.167 12.9629 149.125 13.3632H151.872Z" fill="#030734"/>
</svg>
