<svg width="308" height="180" viewBox="0 0 308 180" fill="none" xmlns="http://www.w3.org/2000/svg">
<g filter="url(#filter0_d_1_238)">
<rect x="24.9473" y="25" width="257.473" height="129.419" rx="11.7221" fill="#F1F4F8" shape-rendering="crispEdges"/>
<path d="M49.3437 43.5864H51.2193V52.5831H49.3437V48.8028H45.2703V52.5831H43.3948V43.5864H45.2703V47.1617H49.3437V43.5864ZM58.8876 49.3156C58.8876 51.323 57.5836 52.7297 55.6787 52.7297C53.7739 52.7297 52.4698 51.323 52.4698 49.3156C52.4698 47.2935 53.7739 45.8869 55.6787 45.8869C57.5836 45.8869 58.8876 47.2935 58.8876 49.3156ZM57.0854 49.3156C57.0854 48.2166 56.5872 47.4254 55.6787 47.4254C54.7703 47.4254 54.2721 48.2166 54.2721 49.3156C54.2721 50.3999 54.7703 51.1911 55.6787 51.1911C56.5872 51.1911 57.0854 50.3999 57.0854 49.3156ZM64.8274 46.0334L65.9117 50.2094L67.084 46.0334H68.8423L66.8495 52.5831H65.1791L64.1095 48.5683L63.0398 52.5831H61.3694L59.3767 46.0334H61.1936L62.3658 50.2094L63.4354 46.0334H64.8274ZM69.3114 50.6343H71.1137C71.2602 51.1032 71.6705 51.3523 72.2126 51.3523C72.7694 51.3523 73.1357 51.1325 73.1357 50.7076C73.1357 50.4145 72.9306 50.268 72.4763 50.1508L71.1576 49.8577C70.1612 49.6233 69.4579 49.1105 69.4579 48.0115C69.4579 46.7367 70.6008 45.8869 72.0661 45.8869C73.7218 45.8869 74.6303 46.6781 74.8501 47.9089H73.1211C73.0038 47.5426 72.6961 47.2642 72.0954 47.2642C71.6558 47.2642 71.2309 47.4694 71.2309 47.8796C71.2309 48.1434 71.4067 48.2899 71.817 48.3925L73.165 48.7002C74.3079 48.9786 74.9087 49.6086 74.9087 50.605C74.9087 51.9384 73.7511 52.7297 72.2273 52.7297C70.6301 52.7297 69.5019 51.9677 69.3114 50.6343ZM81.9777 55.0008H80.19L81.1425 52.6124L78.6369 46.0334H80.5564L82.0656 50.3852L83.5601 46.0334H85.3917L81.9777 55.0008ZM92.1852 49.3156C92.1852 51.323 90.8811 52.7297 88.9762 52.7297C87.0714 52.7297 85.7673 51.323 85.7673 49.3156C85.7673 47.2935 87.0714 45.8869 88.9762 45.8869C90.8811 45.8869 92.1852 47.2935 92.1852 49.3156ZM90.3829 49.3156C90.3829 48.2166 89.8847 47.4254 88.9762 47.4254C88.0678 47.4254 87.5696 48.2166 87.5696 49.3156C87.5696 50.3999 88.0678 51.1911 88.9762 51.1911C89.8847 51.1911 90.3829 50.3999 90.3829 49.3156ZM99.1489 46.0334V52.5831H97.332V51.9824C96.9657 52.3926 96.3356 52.7297 95.5737 52.7297C94.1084 52.7297 93.2732 51.7626 93.2732 50.312V46.0334H95.0901V49.9457C95.0901 50.6343 95.4272 51.1032 96.1451 51.1032C96.7019 51.1032 97.1855 50.7662 97.3173 50.1948V46.0334H99.1489ZM104.687 46.0041V47.821C104.437 47.6745 104.115 47.6012 103.778 47.6012C103.163 47.6012 102.665 47.9236 102.533 48.5244V52.5831H100.716V46.0334H102.533V46.6781C102.811 46.2092 103.353 45.8869 103.998 45.8869C104.306 45.8869 104.584 45.9455 104.687 46.0041ZM114.189 46.7221C114.614 46.2532 115.244 45.8869 116.167 45.8869C117.515 45.8869 118.321 46.8246 118.321 48.3046V52.5831H116.504V48.6855C116.504 47.9822 116.196 47.5133 115.566 47.5133C115.097 47.5133 114.672 47.8064 114.555 48.3632V52.5831H112.724V48.6855C112.724 47.9822 112.431 47.5133 111.8 47.5133C111.332 47.5133 110.892 47.8064 110.775 48.3632V52.5831H108.958V46.0334H110.775V46.5756C111.097 46.1653 111.698 45.8869 112.431 45.8869C113.207 45.8869 113.823 46.2385 114.189 46.7221ZM125.84 49.3156C125.84 51.323 124.536 52.7297 122.631 52.7297C120.727 52.7297 119.423 51.323 119.423 49.3156C119.423 47.2935 120.727 45.8869 122.631 45.8869C124.536 45.8869 125.84 47.2935 125.84 49.3156ZM124.038 49.3156C124.038 48.2166 123.54 47.4254 122.631 47.4254C121.723 47.4254 121.225 48.2166 121.225 49.3156C121.225 50.3999 121.723 51.1911 122.631 51.1911C123.54 51.1911 124.038 50.3999 124.038 49.3156ZM133.067 49.3156C133.067 51.323 131.762 52.7297 129.858 52.7297C127.953 52.7297 126.649 51.323 126.649 49.3156C126.649 47.2935 127.953 45.8869 129.858 45.8869C131.762 45.8869 133.067 47.2935 133.067 49.3156ZM131.264 49.3156C131.264 48.2166 130.766 47.4254 129.858 47.4254C128.949 47.4254 128.451 48.2166 128.451 49.3156C128.451 50.3999 128.949 51.1911 129.858 51.1911C130.766 51.1911 131.264 50.3999 131.264 49.3156ZM138.49 52.5831V52.041C138.197 52.3926 137.553 52.7297 136.849 52.7297C134.944 52.7297 133.875 51.1911 133.875 49.3156C133.875 47.4401 134.944 45.8869 136.849 45.8869C137.553 45.8869 138.197 46.2239 138.49 46.5756V43.0589H140.322V52.5831H138.49ZM138.49 50.3852V48.2313C138.285 47.7917 137.787 47.4694 137.26 47.4694C136.278 47.4694 135.692 48.2606 135.692 49.3156C135.692 50.3559 136.278 51.1472 137.26 51.1472C137.802 51.1472 138.285 50.8395 138.49 50.3852ZM145.384 50.605V47.4987H144.388V46.0334H145.384V44.2604H147.186V46.0334H148.622V47.4987H147.186V50.3706C147.186 50.8834 147.465 51.1179 147.934 51.1179C148.212 51.1179 148.52 51.03 148.725 50.8981V52.5099C148.476 52.6417 148.036 52.715 147.553 52.715C146.219 52.715 145.384 52.0556 145.384 50.605ZM155.99 49.3156C155.99 51.323 154.686 52.7297 152.781 52.7297C150.876 52.7297 149.572 51.323 149.572 49.3156C149.572 47.2935 150.876 45.8869 152.781 45.8869C154.686 45.8869 155.99 47.2935 155.99 49.3156ZM154.188 49.3156C154.188 48.2166 153.689 47.4254 152.781 47.4254C151.873 47.4254 151.374 48.2166 151.374 49.3156C151.374 50.3999 151.873 51.1911 152.781 51.1911C153.689 51.1911 154.188 50.3999 154.188 49.3156ZM161.414 52.5831V52.041C161.121 52.3926 160.476 52.7297 159.773 52.7297C157.868 52.7297 156.798 51.1911 156.798 49.3156C156.798 47.4401 157.868 45.8869 159.773 45.8869C160.476 45.8869 161.121 46.2239 161.414 46.5756V43.0589H163.245V52.5831H161.414ZM161.414 50.3852V48.2313C161.209 47.7917 160.71 47.4694 160.183 47.4694C159.201 47.4694 158.615 48.2606 158.615 49.3156C158.615 50.3559 159.201 51.1472 160.183 51.1472C160.725 51.1472 161.209 50.8395 161.414 50.3852ZM170.184 52.5831H168.441V52.2315C168.221 52.4513 167.561 52.7004 166.843 52.7004C165.525 52.7004 164.411 51.9384 164.411 50.5757C164.411 49.3302 165.525 48.4804 166.946 48.4804C167.517 48.4804 168.177 48.6709 168.441 48.8614V48.3778C168.441 47.821 168.103 47.3668 167.371 47.3668C166.858 47.3668 166.55 47.6012 166.404 47.9822H164.675C164.865 46.7953 165.935 45.8869 167.429 45.8869C169.173 45.8869 170.184 46.8393 170.184 48.4071V52.5831ZM168.441 50.7955V50.3266C168.279 49.975 167.781 49.7552 167.254 49.7552C166.682 49.7552 166.096 50.0043 166.096 50.5611C166.096 51.1325 166.682 51.367 167.254 51.367C167.781 51.367 168.279 51.1472 168.441 50.7955ZM174.215 55.0008H172.427L173.38 52.6124L170.874 46.0334H172.793L174.303 50.3852L175.797 46.0334H177.629L174.215 55.0008ZM180.138 51.5574C180.138 50.8981 180.651 50.4145 181.295 50.4145C181.94 50.4145 182.453 50.8981 182.453 51.5574C182.453 52.1875 181.94 52.6857 181.295 52.6857C180.651 52.6857 180.138 52.1875 180.138 51.5574ZM184.255 46.092C184.255 47.191 183.435 47.9236 182.775 48.6416C182.336 49.1105 182.248 49.4035 182.248 49.6819H180.446C180.49 48.9786 180.665 48.6269 181.266 47.9236C181.779 47.3375 182.365 46.8833 182.365 46.1946C182.365 45.5499 181.94 45.1103 181.237 45.1103C180.49 45.1103 180.094 45.6671 180.05 46.3558H178.116C178.292 44.6854 179.464 43.4399 181.281 43.4399C183.112 43.4399 184.255 44.4656 184.255 46.092Z" fill="#030734"/>
<rect x="42.5303" y="67.4927" width="57.1452" height="48.3537" rx="4.39579" fill="white"/>
<circle cx="71.1028" cy="91.6695" r="9.15789" fill="#6ED880" stroke="#8DBD93" stroke-width="0.732631"/>
<path d="M68.5386 92.7684C69.2601 93.6343 71.2227 94.8464 73.3007 92.7684" stroke="#87BA77" stroke-width="0.732631" stroke-linecap="round"/>
<circle cx="66.3406" cy="90.5705" r="1.09895" fill="#1A441C"/>
<circle cx="75.8651" cy="90.5705" r="1.09895" fill="#1A441C"/>
<path d="M60.0648 128.707V135.836H58.8956V132.718H55.5416V135.836H54.3723V128.707H55.5416V131.764H58.8956V128.707H60.0648ZM61.2144 132.984C61.2144 132.417 61.3306 131.914 61.5631 131.477C61.8025 131.039 62.1238 130.701 62.5273 130.461C62.9376 130.215 63.3889 130.092 63.8812 130.092C64.3256 130.092 64.712 130.181 65.0402 130.359C65.3753 130.53 65.6419 130.745 65.8402 131.005V130.184H67.0198V135.836H65.8402V134.995C65.6419 135.261 65.3718 135.484 65.0299 135.661C64.6881 135.839 64.2983 135.928 63.8607 135.928C63.3752 135.928 62.9307 135.805 62.5273 135.559C62.1238 135.306 61.8025 134.957 61.5631 134.513C61.3306 134.061 61.2144 133.552 61.2144 132.984ZM65.8402 133.005C65.8402 132.615 65.7582 132.277 65.5941 131.99C65.4368 131.702 65.2282 131.483 64.9684 131.333C64.7086 131.183 64.4282 131.107 64.1273 131.107C63.8265 131.107 63.5461 131.183 63.2863 131.333C63.0264 131.477 62.8145 131.692 62.6504 131.979C62.4931 132.26 62.4145 132.595 62.4145 132.984C62.4145 133.374 62.4931 133.716 62.6504 134.01C62.8145 134.304 63.0264 134.53 63.2863 134.687C63.553 134.837 63.8333 134.913 64.1273 134.913C64.4282 134.913 64.7086 134.837 64.9684 134.687C65.2282 134.537 65.4368 134.318 65.5941 134.031C65.7582 133.737 65.8402 133.395 65.8402 133.005ZM69.7249 131.015C69.9232 130.755 70.1932 130.536 70.5351 130.359C70.877 130.181 71.2634 130.092 71.6942 130.092C72.1865 130.092 72.6344 130.215 73.0378 130.461C73.4481 130.701 73.7695 131.039 74.002 131.477C74.2344 131.914 74.3507 132.417 74.3507 132.984C74.3507 133.552 74.2344 134.061 74.002 134.513C73.7695 134.957 73.4481 135.306 73.0378 135.559C72.6344 135.805 72.1865 135.928 71.6942 135.928C71.2634 135.928 70.8805 135.843 70.5454 135.672C70.2103 135.494 69.9368 135.275 69.7249 135.015V138.523H68.5556V130.184H69.7249V131.015ZM73.1609 132.984C73.1609 132.595 73.0788 132.26 72.9147 131.979C72.7575 131.692 72.5455 131.477 72.2788 131.333C72.019 131.183 71.7386 131.107 71.4377 131.107C71.1437 131.107 70.8634 131.183 70.5967 131.333C70.3368 131.483 70.1249 131.702 69.9608 131.99C69.8035 132.277 69.7249 132.615 69.7249 133.005C69.7249 133.395 69.8035 133.737 69.9608 134.031C70.1249 134.318 70.3368 134.537 70.5967 134.687C70.8634 134.837 71.1437 134.913 71.4377 134.913C71.7386 134.913 72.019 134.837 72.2788 134.687C72.5455 134.53 72.7575 134.304 72.9147 134.01C73.0788 133.716 73.1609 133.374 73.1609 132.984ZM76.6763 131.015C76.8746 130.755 77.1447 130.536 77.4866 130.359C77.8284 130.181 78.2148 130.092 78.6456 130.092C79.1379 130.092 79.5858 130.215 79.9892 130.461C80.3995 130.701 80.7209 131.039 80.9534 131.477C81.1859 131.914 81.3021 132.417 81.3021 132.984C81.3021 133.552 81.1859 134.061 80.9534 134.513C80.7209 134.957 80.3995 135.306 79.9892 135.559C79.5858 135.805 79.1379 135.928 78.6456 135.928C78.2148 135.928 77.8319 135.843 77.4968 135.672C77.1618 135.494 76.8882 135.275 76.6763 135.015V138.523H75.507V130.184H76.6763V131.015ZM80.1123 132.984C80.1123 132.595 80.0303 132.26 79.8661 131.979C79.7089 131.692 79.4969 131.477 79.2302 131.333C78.9704 131.183 78.69 131.107 78.3892 131.107C78.0951 131.107 77.8148 131.183 77.5481 131.333C77.2883 131.483 77.0763 131.702 76.9122 131.99C76.7549 132.277 76.6763 132.615 76.6763 133.005C76.6763 133.395 76.7549 133.737 76.9122 134.031C77.0763 134.318 77.2883 134.537 77.5481 134.687C77.8148 134.837 78.0951 134.913 78.3892 134.913C78.69 134.913 78.9704 134.837 79.2302 134.687C79.4969 134.53 79.7089 134.304 79.8661 134.01C80.0303 133.716 80.1123 133.374 80.1123 132.984ZM87.5458 130.184L84.079 138.492H82.8687L84.0174 135.744L81.7917 130.184H83.0943L84.6841 134.492L86.3355 130.184H87.5458Z" fill="#343434"/>
<rect x="112.863" y="67.4927" width="41.8664" height="35.4254" rx="3.22049" fill="white"/>
<circle cx="6.97773" cy="6.97773" r="6.61141" transform="matrix(1 0 0 -1 126.818 92.1831)" fill="#FFA992" stroke="#D8907D" stroke-width="0.732631"/>
<path d="M131.917 86.8511C132.446 86.2167 133.884 85.3287 135.406 86.8511" stroke="#DB8270" stroke-width="0.732631" stroke-linecap="round"/>
<ellipse cx="130.307" cy="84.4002" rx="0.805123" ry="0.805123" fill="#5A0E0E"/>
<ellipse cx="137.285" cy="84.4002" rx="0.805123" ry="0.805123" fill="#5A0E0E"/>
<path d="M128.58 118.022C128.23 118.022 127.914 117.962 127.633 117.842C127.353 117.716 127.133 117.541 126.972 117.316C126.812 117.09 126.732 116.827 126.732 116.527H127.649C127.669 116.752 127.756 116.937 127.912 117.083C128.072 117.228 128.295 117.301 128.58 117.301C128.876 117.301 129.106 117.23 129.272 117.09C129.437 116.945 129.52 116.76 129.52 116.534C129.52 116.359 129.467 116.216 129.362 116.106C129.262 115.996 129.134 115.91 128.979 115.85C128.828 115.79 128.618 115.725 128.347 115.655C128.007 115.565 127.729 115.475 127.513 115.384C127.303 115.289 127.122 115.144 126.972 114.949C126.822 114.753 126.747 114.493 126.747 114.167C126.747 113.866 126.822 113.603 126.972 113.378C127.122 113.153 127.333 112.98 127.603 112.86C127.874 112.739 128.187 112.679 128.543 112.679C129.049 112.679 129.462 112.807 129.783 113.062C130.108 113.313 130.289 113.659 130.324 114.099H129.377C129.362 113.909 129.272 113.746 129.106 113.611C128.941 113.476 128.723 113.408 128.453 113.408C128.207 113.408 128.007 113.471 127.851 113.596C127.696 113.721 127.618 113.902 127.618 114.137C127.618 114.297 127.666 114.43 127.761 114.535C127.861 114.635 127.987 114.716 128.137 114.776C128.287 114.836 128.493 114.901 128.753 114.971C129.099 115.066 129.379 115.161 129.595 115.257C129.815 115.352 130.001 115.5 130.151 115.7C130.306 115.895 130.384 116.158 130.384 116.489C130.384 116.755 130.311 117.005 130.166 117.24C130.026 117.476 129.818 117.666 129.542 117.812C129.272 117.952 128.951 118.022 128.58 118.022ZM131.109 115.88C131.109 115.465 131.194 115.096 131.365 114.776C131.54 114.455 131.775 114.207 132.071 114.032C132.371 113.851 132.702 113.761 133.063 113.761C133.388 113.761 133.671 113.826 133.912 113.957C134.157 114.082 134.353 114.24 134.498 114.43V113.829H135.362V117.969H134.498V117.353C134.353 117.549 134.155 117.711 133.904 117.842C133.654 117.972 133.368 118.037 133.048 118.037C132.692 118.037 132.366 117.947 132.071 117.766C131.775 117.581 131.54 117.326 131.365 117C131.194 116.669 131.109 116.296 131.109 115.88ZM134.498 115.895C134.498 115.61 134.438 115.362 134.318 115.151C134.203 114.941 134.05 114.781 133.859 114.671C133.669 114.56 133.464 114.505 133.243 114.505C133.023 114.505 132.817 114.56 132.627 114.671C132.437 114.776 132.281 114.934 132.161 115.144C132.046 115.349 131.988 115.595 131.988 115.88C131.988 116.166 132.046 116.416 132.161 116.632C132.281 116.847 132.437 117.013 132.627 117.128C132.822 117.238 133.028 117.293 133.243 117.293C133.464 117.293 133.669 117.238 133.859 117.128C134.05 117.018 134.203 116.857 134.318 116.647C134.438 116.431 134.498 116.181 134.498 115.895ZM136.202 115.88C136.202 115.465 136.287 115.096 136.457 114.776C136.633 114.455 136.868 114.207 137.164 114.032C137.464 113.851 137.797 113.761 138.163 113.761C138.434 113.761 138.699 113.821 138.96 113.942C139.225 114.057 139.436 114.212 139.591 114.407V112.409H140.455V117.969H139.591V117.346C139.451 117.546 139.255 117.711 139.005 117.842C138.759 117.972 138.476 118.037 138.156 118.037C137.795 118.037 137.464 117.947 137.164 117.766C136.868 117.581 136.633 117.326 136.457 117C136.287 116.669 136.202 116.296 136.202 115.88ZM139.591 115.895C139.591 115.61 139.531 115.362 139.411 115.151C139.295 114.941 139.143 114.781 138.952 114.671C138.762 114.56 138.556 114.505 138.336 114.505C138.116 114.505 137.91 114.56 137.72 114.671C137.529 114.776 137.374 114.934 137.254 115.144C137.139 115.349 137.081 115.595 137.081 115.88C137.081 116.166 137.139 116.416 137.254 116.632C137.374 116.847 137.529 117.013 137.72 117.128C137.915 117.238 138.121 117.293 138.336 117.293C138.556 117.293 138.762 117.238 138.952 117.128C139.143 117.018 139.295 116.857 139.411 116.647C139.531 116.431 139.591 116.181 139.591 115.895Z" fill="#343434"/>
<rect x="167.917" y="67.4927" width="41.8664" height="35.4254" rx="3.22049" fill="white"/>
<circle cx="188.85" cy="85.2054" r="6.61141" fill="#FFD529" stroke="#E0B91A" stroke-width="0.732631"/>
<path d="M186.971 86.5472C188.313 86.5472 188.581 86.5472 190.46 86.5472" stroke="#D1A90C" stroke-width="0.732631" stroke-linecap="round"/>
<ellipse cx="185.361" cy="84.4002" rx="0.805123" ry="0.805123" fill="#734A00"/>
<ellipse cx="192.339" cy="84.4002" rx="0.805123" ry="0.805123" fill="#734A00"/>
<path d="M179.704 117.969H178.847L176.27 114.069V117.969H175.413V112.739H176.27L178.847 116.632V112.739H179.704V117.969ZM182.625 118.037C182.234 118.037 181.881 117.949 181.565 117.774C181.25 117.594 181.002 117.343 180.821 117.023C180.641 116.697 180.551 116.321 180.551 115.895C180.551 115.475 180.644 115.101 180.829 114.776C181.014 114.45 181.267 114.2 181.588 114.024C181.908 113.849 182.267 113.761 182.662 113.761C183.058 113.761 183.416 113.849 183.737 114.024C184.058 114.2 184.311 114.45 184.496 114.776C184.681 115.101 184.774 115.475 184.774 115.895C184.774 116.316 184.679 116.689 184.488 117.015C184.298 117.341 184.038 117.594 183.707 117.774C183.381 117.949 183.021 118.037 182.625 118.037ZM182.625 117.293C182.845 117.293 183.051 117.24 183.241 117.135C183.436 117.03 183.594 116.872 183.714 116.662C183.835 116.451 183.895 116.196 183.895 115.895C183.895 115.595 183.837 115.342 183.722 115.136C183.607 114.926 183.454 114.768 183.264 114.663C183.073 114.558 182.868 114.505 182.647 114.505C182.427 114.505 182.222 114.558 182.031 114.663C181.846 114.768 181.698 114.926 181.588 115.136C181.478 115.342 181.423 115.595 181.423 115.895C181.423 116.341 181.535 116.687 181.761 116.932C181.991 117.173 182.279 117.293 182.625 117.293ZM186.478 114.43C186.603 114.22 186.768 114.057 186.973 113.942C187.184 113.821 187.432 113.761 187.717 113.761V114.648H187.499C187.164 114.648 186.908 114.733 186.733 114.903C186.563 115.074 186.478 115.369 186.478 115.79V117.969H185.621V113.829H186.478V114.43ZM193.517 113.761C193.843 113.761 194.133 113.829 194.389 113.964C194.649 114.099 194.852 114.3 194.997 114.565C195.148 114.831 195.223 115.151 195.223 115.527V117.969H194.374V115.655C194.374 115.284 194.281 115.001 194.096 114.806C193.91 114.605 193.657 114.505 193.337 114.505C193.016 114.505 192.761 114.605 192.57 114.806C192.385 115.001 192.292 115.284 192.292 115.655V117.969H191.443V115.655C191.443 115.284 191.35 115.001 191.165 114.806C190.98 114.605 190.727 114.505 190.406 114.505C190.085 114.505 189.83 114.605 189.64 114.806C189.454 115.001 189.361 115.284 189.361 115.655V117.969H188.505V113.829H189.361V114.302C189.502 114.132 189.68 113.999 189.895 113.904C190.11 113.809 190.341 113.761 190.586 113.761C190.917 113.761 191.213 113.831 191.473 113.972C191.734 114.112 191.934 114.315 192.074 114.58C192.199 114.33 192.395 114.132 192.66 113.987C192.926 113.836 193.211 113.761 193.517 113.761ZM196.027 115.88C196.027 115.465 196.112 115.096 196.283 114.776C196.458 114.455 196.694 114.207 196.989 114.032C197.29 113.851 197.62 113.761 197.981 113.761C198.307 113.761 198.59 113.826 198.83 113.957C199.076 114.082 199.271 114.24 199.416 114.43V113.829H200.28V117.969H199.416V117.353C199.271 117.549 199.073 117.711 198.823 117.842C198.572 117.972 198.287 118.037 197.966 118.037C197.61 118.037 197.285 117.947 196.989 117.766C196.694 117.581 196.458 117.326 196.283 117C196.112 116.669 196.027 116.296 196.027 115.88ZM199.416 115.895C199.416 115.61 199.356 115.362 199.236 115.151C199.121 114.941 198.968 114.781 198.778 114.671C198.587 114.56 198.382 114.505 198.161 114.505C197.941 114.505 197.736 114.56 197.545 114.671C197.355 114.776 197.2 114.934 197.079 115.144C196.964 115.349 196.906 115.595 196.906 115.88C196.906 116.166 196.964 116.416 197.079 116.632C197.2 116.847 197.355 117.013 197.545 117.128C197.741 117.238 197.946 117.293 198.161 117.293C198.382 117.293 198.587 117.238 198.778 117.128C198.968 117.018 199.121 116.857 199.236 116.647C199.356 116.431 199.416 116.181 199.416 115.895ZM202.262 112.409V117.969H201.406V112.409H202.262Z" fill="#343434"/>
<rect x="222.97" y="67.4927" width="41.8664" height="35.4254" rx="3.22049" fill="white"/>
<circle cx="243.904" cy="85.2054" r="6.61141" fill="#F1594C" stroke="#BB5642" stroke-width="0.732631"/>
<ellipse cx="240.683" cy="84.6686" rx="1.0735" ry="1.0735" fill="#74000D"/>
<ellipse cx="247.661" cy="84.6686" rx="1.0735" ry="1.0735" fill="#74000D"/>
<path d="M246.587 88.4259H241.22C241.22 87.5313 241.756 85.7422 243.903 85.7422C246.05 85.7422 246.587 87.5313 246.587 88.4259Z" fill="#81152C"/>
<path d="M241.468 112.747V117.969H240.611V114.392L239.018 117.969H238.424L236.824 114.392V117.969H235.967V112.747H236.891L238.725 116.842L240.551 112.747H241.468ZM242.308 115.88C242.308 115.465 242.393 115.096 242.563 114.776C242.739 114.455 242.974 114.207 243.27 114.032C243.57 113.851 243.901 113.761 244.262 113.761C244.587 113.761 244.87 113.826 245.111 113.957C245.356 114.082 245.552 114.24 245.697 114.43V113.829H246.561V117.969H245.697V117.353C245.552 117.549 245.354 117.711 245.103 117.842C244.853 117.972 244.567 118.037 244.247 118.037C243.891 118.037 243.565 117.947 243.27 117.766C242.974 117.581 242.739 117.326 242.563 117C242.393 116.669 242.308 116.296 242.308 115.88ZM245.697 115.895C245.697 115.61 245.637 115.362 245.517 115.151C245.401 114.941 245.249 114.781 245.058 114.671C244.868 114.56 244.662 114.505 244.442 114.505C244.222 114.505 244.016 114.56 243.826 114.671C243.635 114.776 243.48 114.934 243.36 115.144C243.245 115.349 243.187 115.595 243.187 115.88C243.187 116.166 243.245 116.416 243.36 116.632C243.48 116.847 243.635 117.013 243.826 117.128C244.021 117.238 244.227 117.293 244.442 117.293C244.662 117.293 244.868 117.238 245.058 117.128C245.249 117.018 245.401 116.857 245.517 116.647C245.637 116.431 245.697 116.181 245.697 115.895ZM247.401 115.88C247.401 115.465 247.486 115.096 247.656 114.776C247.832 114.455 248.067 114.207 248.363 114.032C248.663 113.851 248.996 113.761 249.362 113.761C249.633 113.761 249.898 113.821 250.159 113.942C250.424 114.057 250.634 114.212 250.79 114.407V112.409H251.654V117.969H250.79V117.346C250.649 117.546 250.454 117.711 250.204 117.842C249.958 117.972 249.675 118.037 249.354 118.037C248.994 118.037 248.663 117.947 248.363 117.766C248.067 117.581 247.832 117.326 247.656 117C247.486 116.669 247.401 116.296 247.401 115.88ZM250.79 115.895C250.79 115.61 250.73 115.362 250.609 115.151C250.494 114.941 250.341 114.781 250.151 114.671C249.961 114.56 249.755 114.505 249.535 114.505C249.314 114.505 249.109 114.56 248.919 114.671C248.728 114.776 248.573 114.934 248.453 115.144C248.338 115.349 248.28 115.595 248.28 115.88C248.28 116.166 248.338 116.416 248.453 116.632C248.573 116.847 248.728 117.013 248.919 117.128C249.114 117.238 249.319 117.293 249.535 117.293C249.755 117.293 249.961 117.238 250.151 117.128C250.341 117.018 250.494 116.857 250.609 116.647C250.73 116.431 250.79 116.181 250.79 115.895Z" fill="#343434"/>
</g>
<defs>
<filter id="filter0_d_1_238" x="0.271252" y="0.323986" width="306.825" height="178.771" filterUnits="userSpaceOnUse" color-interpolation-filters="sRGB">
<feFlood flood-opacity="0" result="BackgroundImageFix"/>
<feColorMatrix in="SourceAlpha" type="matrix" values="0 0 0 0 0 0 0 0 0 0 0 0 0 0 0 0 0 0 127 0" result="hardAlpha"/>
<feOffset/>
<feGaussianBlur stdDeviation="12.338"/>
<feComposite in2="hardAlpha" operator="out"/>
<feColorMatrix type="matrix" values="0 0 0 0 0.786667 0 0 0 0 0.832381 0 0 0 0 0.893333 0 0 0 0.7 0"/>
<feBlend mode="normal" in2="BackgroundImageFix" result="effect1_dropShadow_1_238"/>
<feBlend mode="normal" in="SourceGraphic" in2="effect1_dropShadow_1_238" result="shape"/>
</filter>
</defs>
</svg>
