<svg width="170" height="51" viewBox="0 0 170 51" fill="none" xmlns="http://www.w3.org/2000/svg">
<path d="M163.704 50.8047H6.2963C2.83491 50.8047 0 47.9453 0 44.4541V6.35067C0 2.85944 2.83491 9.35699e-05 6.2963 9.35699e-05H163.704C167.165 9.35699e-05 170 2.85944 170 6.35067V44.4541C170 47.9453 167.165 50.8047 163.704 50.8047Z" fill="#030734"/>
<path d="M59.7106 13.0109C59.7106 14.0714 59.3958 14.9208 58.7757 15.5543C58.0626 16.3052 57.1339 16.6831 55.9958 16.6831C54.9082 16.6831 53.9794 16.2989 53.2176 15.5416C52.4542 14.7732 52.0732 13.8301 52.0732 12.7013C52.0732 11.5725 52.4542 10.6294 53.2176 9.86735C53.9794 9.10369 54.9082 8.71948 55.9958 8.71948C56.5373 8.71948 57.0536 8.83221 57.5463 9.04177C58.0374 9.25293 58.4372 9.53871 58.7269 9.89116L58.0689 10.5611C57.5636 9.95943 56.8757 9.66254 55.9958 9.66254C55.2025 9.66254 54.5146 9.94197 53.9307 10.5056C53.353 11.0708 53.0633 11.8027 53.0633 12.7013C53.0633 13.5999 53.353 14.3382 53.9307 14.9034C54.5146 15.4606 55.2025 15.7464 55.9958 15.7464C56.838 15.7464 57.5463 15.4606 58.1051 14.897C58.4734 14.5239 58.6828 14.0095 58.7379 13.3522H55.9958V12.4346H59.654C59.6981 12.633 59.7106 12.8251 59.7106 13.0109Z" fill="#FAFAFA" stroke="white" stroke-width="0.156322" stroke-miterlimit="10"/>
<path d="M65.5145 9.82916H62.0782V12.2424H65.176V13.16H62.0782V15.5733H65.5145V16.5084H61.1055V8.89404H65.5145V9.82916Z" fill="#FAFAFA" stroke="white" stroke-width="0.156322" stroke-miterlimit="10"/>
<path d="M69.6107 16.5084H68.638V9.82916H66.5303V8.89404H71.72V9.82916H69.6107V16.5084Z" fill="#FAFAFA" stroke="white" stroke-width="0.156322" stroke-miterlimit="10"/>
<path d="M75.4756 16.5084V8.89404H76.4468V16.5084H75.4756Z" fill="#FAFAFA" stroke="white" stroke-width="0.156322" stroke-miterlimit="10"/>
<path d="M80.7514 16.5084H79.7864V9.82916H77.6709V8.89404H82.8669V9.82916H80.7514V16.5084Z" fill="#FAFAFA" stroke="white" stroke-width="0.156322" stroke-miterlimit="10"/>
<path d="M92.6927 15.5289C91.9481 16.2989 91.0257 16.6831 89.9254 16.6831C88.8189 16.6831 87.8965 16.2989 87.1519 15.5289C86.409 14.7605 86.0391 13.8174 86.0391 12.7013C86.0391 11.5852 86.409 10.6421 87.1519 9.8737C87.8965 9.10369 88.8189 8.71948 89.9254 8.71948C91.0194 8.71948 91.9418 9.10369 92.6864 9.88005C93.4356 10.6548 93.8055 11.5915 93.8055 12.7013C93.8055 13.8174 93.4356 14.7605 92.6927 15.5289ZM87.8713 14.8907C88.4317 15.4606 89.1132 15.7464 89.9254 15.7464C90.7314 15.7464 91.4192 15.4606 91.9733 14.8907C92.5321 14.3207 92.8154 13.5888 92.8154 12.7013C92.8154 11.8138 92.5321 11.0819 91.9733 10.5119C91.4192 9.94197 90.7314 9.65619 89.9254 9.65619C89.1132 9.65619 88.4317 9.94197 87.8713 10.5119C87.3125 11.0819 87.0292 11.8138 87.0292 12.7013C87.0292 13.5888 87.3125 14.3207 87.8713 14.8907Z" fill="#FAFAFA" stroke="white" stroke-width="0.156322" stroke-miterlimit="10"/>
<path d="M95.1699 16.5084V8.89404H96.3505L100.021 14.816H100.064L100.021 13.3521V8.89404H100.992V16.5084H99.9787L96.1348 10.2943H96.0923L96.1348 11.7645V16.5084H95.1699Z" fill="#FAFAFA" stroke="white" stroke-width="0.156322" stroke-miterlimit="10"/>
<path d="M85.7993 27.6283C82.8416 27.6283 80.4254 29.8986 80.4254 33.0311C80.4254 36.1381 82.8416 38.4322 85.7993 38.4322C88.7633 38.4322 91.1795 36.1381 91.1795 33.0311C91.1795 29.8986 88.7633 27.6283 85.7993 27.6283ZM85.7993 36.3048C84.1764 36.3048 82.7802 34.9537 82.7802 33.0311C82.7802 31.083 84.1764 29.7558 85.7993 29.7558C87.4222 29.7558 88.8247 31.083 88.8247 33.0311C88.8247 34.9537 87.4222 36.3048 85.7993 36.3048ZM74.074 27.6283C71.11 27.6283 68.7001 29.8986 68.7001 33.0311C68.7001 36.1381 71.11 38.4322 74.074 38.4322C77.0364 38.4322 79.4479 36.1381 79.4479 33.0311C79.4479 29.8986 77.0364 27.6283 74.074 27.6283ZM74.074 36.3048C72.4496 36.3048 71.0487 34.9537 71.0487 33.0311C71.0487 31.083 72.4496 29.7558 74.074 29.7558C75.6969 29.7558 77.0931 31.083 77.0931 33.0311C77.0931 34.9537 75.6969 36.3048 74.074 36.3048ZM60.1214 29.2842V31.58H65.5567C65.3977 32.8628 64.9727 33.8058 64.3211 34.4631C63.5277 35.2569 62.2921 36.1381 60.1214 36.1381C56.7765 36.1381 54.1573 33.4153 54.1573 30.0415C54.1573 26.6678 56.7765 23.945 60.1214 23.945C61.9301 23.945 63.246 24.6578 64.2172 25.5818L65.8212 23.964C64.4627 22.6558 62.6557 21.6508 60.1214 21.6508C55.5346 21.6508 51.6797 25.4151 51.6797 30.0415C51.6797 34.6679 55.5346 38.4322 60.1214 38.4322C62.6006 38.4322 64.4627 37.613 65.9266 36.0762C67.4267 34.5631 67.8942 32.4357 67.8942 30.7179C67.8942 30.1844 67.8501 29.6938 67.7714 29.2842H60.1214ZM117.175 31.064C116.733 29.8558 115.368 27.6283 112.588 27.6283C109.834 27.6283 107.54 29.8177 107.54 33.0311C107.54 36.0571 109.81 38.4322 112.853 38.4322C115.313 38.4322 116.733 36.9192 117.317 36.0381L115.491 34.8108C114.882 35.7094 114.052 36.3048 112.853 36.3048C111.661 36.3048 110.807 35.7539 110.259 34.6679L117.422 31.6784L117.175 31.064ZM109.872 32.8628C109.81 30.7798 111.476 29.7129 112.669 29.7129C113.604 29.7129 114.397 30.1844 114.662 30.8592L109.872 32.8628ZM104.049 38.1036H106.404V22.2271H104.049V38.1036ZM100.193 28.8317H100.114C99.585 28.1999 98.5761 27.6283 97.2979 27.6283C94.6157 27.6283 92.1633 30.0034 92.1633 33.0485C92.1633 36.0762 94.6157 38.4322 97.2979 38.4322C98.5761 38.4322 99.585 37.8559 100.114 37.205H100.193V37.9797C100.193 40.0453 99.0987 41.155 97.3341 41.155C95.8954 41.155 95.0029 40.1072 94.6346 39.226L92.5867 40.0881C93.177 41.5202 94.74 43.2825 97.3341 43.2825C100.095 43.2825 102.425 41.644 102.425 37.6575V27.9569H100.193V28.8317ZM97.4994 36.3048C95.8765 36.3048 94.5181 34.9346 94.5181 33.0485C94.5181 31.1449 95.8765 29.7558 97.4994 29.7558C99.0987 29.7558 100.359 31.1449 100.359 33.0485C100.359 34.9346 99.0987 36.3048 97.4994 36.3048ZM128.2 22.2271H122.568V38.1036H124.917V32.088H128.2C130.808 32.088 133.366 30.1844 133.366 27.1568C133.366 24.1307 130.802 22.2271 128.2 22.2271ZM128.262 29.8796H124.917V24.4356H128.262C130.015 24.4356 131.016 25.9041 131.016 27.1568C131.016 28.3856 130.015 29.8796 128.262 29.8796ZM142.779 27.5981C141.082 27.5981 139.318 28.3539 138.592 30.0288L140.676 30.91C141.125 30.0288 141.95 29.743 142.822 29.743C144.04 29.743 145.276 30.4813 145.295 31.7848V31.9515C144.87 31.7038 143.96 31.337 142.841 31.337C140.596 31.337 138.309 32.5833 138.309 34.9092C138.309 37.0367 140.147 38.4068 142.214 38.4068C143.794 38.4068 144.667 37.6876 145.214 36.8509H145.295V38.0782H147.563V31.988C147.563 29.1731 145.479 27.5981 142.779 27.5981ZM142.496 36.2984C141.728 36.2984 140.657 35.9142 140.657 34.9537C140.657 33.7249 141.992 33.2533 143.148 33.2533C144.182 33.2533 144.667 33.4835 145.295 33.7868C145.11 35.2569 143.856 36.2984 142.496 36.2984ZM155.827 27.9458L153.127 34.8283H153.047L150.256 27.9458H147.723L151.917 37.5638L149.524 42.9157H151.978L158.44 27.9458H155.827ZM134.657 38.1036H137.012V22.2271H134.657V38.1036Z" fill="#FAFAFA"/>
<path d="M13.1406 9.57525C12.7707 9.96581 12.5566 10.5739 12.5566 11.3614V39.4499C12.5566 40.2374 12.7707 40.8455 13.1406 41.236L13.2319 41.3218L28.8373 25.5882V25.2167L13.2319 9.48317L13.1406 9.57525Z" fill="url(#paint0_linear_1_496)"/>
<path d="M34.0329 30.8354L28.8369 25.5883V25.2168L34.0392 19.9696L34.1557 20.0379L40.3166 23.5736C42.0749 24.577 42.0749 26.2281 40.3166 27.2378L34.1557 30.7672L34.0329 30.8354Z" fill="url(#paint1_linear_1_496)"/>
<path d="M34.1561 30.7672L28.8373 25.4026L13.1406 41.2361C13.7246 41.8553 14.6769 41.9299 15.7599 41.3107L34.1561 30.7672Z" fill="url(#paint2_linear_1_496)"/>
<path d="M34.1561 20.0377L15.7599 9.49416C14.6769 8.88133 13.7246 8.95595 13.1406 9.57513L28.8373 25.4023L34.1561 20.0377Z" fill="url(#paint3_linear_1_496)"/>
<defs>
<linearGradient id="paint0_linear_1_496" x1="27.4517" y1="39.7425" x2="6.13692" y2="18.6099" gradientUnits="userSpaceOnUse">
<stop stop-color="#00A0FF"/>
<stop offset="0.0066" stop-color="#00A1FF"/>
<stop offset="0.2601" stop-color="#00BEFF"/>
<stop offset="0.5122" stop-color="#00D2FF"/>
<stop offset="0.7604" stop-color="#00DFFF"/>
<stop offset="1" stop-color="#00E3FF"/>
</linearGradient>
<linearGradient id="paint1_linear_1_496" x1="42.6062" y1="25.4008" x2="12.136" y2="25.4008" gradientUnits="userSpaceOnUse">
<stop stop-color="#FFE000"/>
<stop offset="0.4087" stop-color="#FFBD00"/>
<stop offset="0.7754" stop-color="#FFA500"/>
<stop offset="1" stop-color="#FF9C00"/>
</linearGradient>
<linearGradient id="paint2_linear_1_496" x1="31.2639" y1="22.4862" x2="2.35929" y2="-6.17129" gradientUnits="userSpaceOnUse">
<stop stop-color="#FF3A44"/>
<stop offset="1" stop-color="#C31162"/>
</linearGradient>
<linearGradient id="paint3_linear_1_496" x1="9.18945" y1="50.5809" x2="22.0966" y2="37.7841" gradientUnits="userSpaceOnUse">
<stop stop-color="#32A071"/>
<stop offset="0.0685" stop-color="#2DA771"/>
<stop offset="0.4762" stop-color="#15CF74"/>
<stop offset="0.8009" stop-color="#06E775"/>
<stop offset="1" stop-color="#00F076"/>
</linearGradient>
</defs>
</svg>
