<svg width="171" height="51" viewBox="0 0 171 51" fill="none" xmlns="http://www.w3.org/2000/svg">
<path d="M164.204 50.8047H6.7963C3.33491 50.8047 0.5 47.9453 0.5 44.4541V6.35067C0.5 2.85944 3.33491 9.35699e-05 6.7963 9.35699e-05H164.204C167.665 9.35699e-05 170.5 2.85944 170.5 6.35067V44.4541C170.5 47.9453 167.665 50.8047 164.204 50.8047Z" fill="#FAFAFA"/>
<path d="M60.2111 13.0111C60.2111 14.0717 59.8963 14.9211 59.2761 15.5545C58.5631 16.3055 57.6344 16.6833 56.4963 16.6833C55.4086 16.6833 54.4799 16.2991 53.7181 15.5418C52.9547 14.7734 52.5737 13.8304 52.5737 12.7015C52.5737 11.5727 52.9547 10.6297 53.7181 9.86759C54.4799 9.10394 55.4086 8.71973 56.4963 8.71973C57.0378 8.71973 57.5541 8.83245 58.0468 9.04202C58.5379 9.25317 58.9377 9.53895 59.2273 9.89141L58.5694 10.5614C58.0641 9.95968 57.3762 9.66279 56.4963 9.66279C55.703 9.66279 55.0151 9.94221 54.4311 10.5058C53.8535 11.071 53.5638 11.8029 53.5638 12.7015C53.5638 13.6001 53.8535 14.3384 54.4311 14.9036C55.0151 15.4609 55.703 15.7466 56.4963 15.7466C57.3385 15.7466 58.0468 15.4609 58.6056 14.8972C58.9739 14.5241 59.1833 14.0098 59.2384 13.3525H56.4963V12.4348H60.1545C60.1985 12.6333 60.2111 12.8254 60.2111 13.0111Z" fill="#030734" stroke="white" stroke-width="0.156322" stroke-miterlimit="10"/>
<path d="M66.0145 9.82916H62.5782V12.2424H65.676V13.16H62.5782V15.5733H66.0145V16.5084H61.6055V8.89404H66.0145V9.82916Z" fill="#030734" stroke="white" stroke-width="0.156322" stroke-miterlimit="10"/>
<path d="M70.1102 16.5084H69.1375V9.82916H67.0298V8.89404H72.2195V9.82916H70.1102V16.5084Z" fill="#030734" stroke="white" stroke-width="0.156322" stroke-miterlimit="10"/>
<path d="M75.9751 16.5084V8.89404H76.9463V16.5084H75.9751Z" fill="#030734" stroke="white" stroke-width="0.156322" stroke-miterlimit="10"/>
<path d="M81.2514 16.5084H80.2864V9.82916H78.1709V8.89404H83.3669V9.82916H81.2514V16.5084Z" fill="#030734" stroke="white" stroke-width="0.156322" stroke-miterlimit="10"/>
<path d="M93.1922 15.5291C92.4477 16.2991 91.5252 16.6833 90.425 16.6833C89.3184 16.6833 88.396 16.2991 87.6514 15.5291C86.9085 14.7607 86.5386 13.8176 86.5386 12.7015C86.5386 11.5854 86.9085 10.6424 87.6514 9.87394C88.396 9.10394 89.3184 8.71973 90.425 8.71973C91.5189 8.71973 92.4414 9.10394 93.1859 9.88029C93.9352 10.6551 94.3051 11.5918 94.3051 12.7015C94.3051 13.8176 93.9352 14.7607 93.1922 15.5291ZM88.3708 14.8909C88.9312 15.4609 89.6127 15.7466 90.425 15.7466C91.2309 15.7466 91.9188 15.4609 92.4728 14.8909C93.0316 14.3209 93.315 13.589 93.315 12.7015C93.315 11.814 93.0316 11.0821 92.4728 10.5122C91.9188 9.94221 91.2309 9.65644 90.425 9.65644C89.6127 9.65644 88.9312 9.94221 88.3708 10.5122C87.812 11.0821 87.5287 11.814 87.5287 12.7015C87.5287 13.589 87.812 14.3209 88.3708 14.8909Z" fill="#030734" stroke="white" stroke-width="0.156322" stroke-miterlimit="10"/>
<path d="M95.6699 16.5084V8.89404H96.8505L100.521 14.816H100.564L100.521 13.3521V8.89404H101.492V16.5084H100.479L96.6348 10.2943H96.5923L96.6348 11.7645V16.5084H95.6699Z" fill="#030734" stroke="white" stroke-width="0.156322" stroke-miterlimit="10"/>
<path d="M86.2993 27.6281C83.3416 27.6281 80.9254 29.8984 80.9254 33.0308C80.9254 36.1378 83.3416 38.432 86.2993 38.432C89.2633 38.432 91.6795 36.1378 91.6795 33.0308C91.6795 29.8984 89.2633 27.6281 86.2993 27.6281ZM86.2993 36.3045C84.6764 36.3045 83.2802 34.9535 83.2802 33.0308C83.2802 31.0828 84.6764 29.7555 86.2993 29.7555C87.9222 29.7555 89.3247 31.0828 89.3247 33.0308C89.3247 34.9535 87.9222 36.3045 86.2993 36.3045ZM74.574 27.6281C71.61 27.6281 69.2001 29.8984 69.2001 33.0308C69.2001 36.1378 71.61 38.432 74.574 38.432C77.5364 38.432 79.9479 36.1378 79.9479 33.0308C79.9479 29.8984 77.5364 27.6281 74.574 27.6281ZM74.574 36.3045C72.9496 36.3045 71.5487 34.9535 71.5487 33.0308C71.5487 31.0828 72.9496 29.7555 74.574 29.7555C76.1969 29.7555 77.5931 31.0828 77.5931 33.0308C77.5931 34.9535 76.1969 36.3045 74.574 36.3045ZM60.6214 29.284V31.5797H66.0567C65.8977 32.8625 65.4727 33.8056 64.8211 34.4629C64.0277 35.2567 62.7921 36.1378 60.6214 36.1378C57.2765 36.1378 54.6573 33.415 54.6573 30.0413C54.6573 26.6675 57.2765 23.9447 60.6214 23.9447C62.4301 23.9447 63.746 24.6576 64.7172 25.5816L66.3212 23.9638C64.9627 22.6556 63.1557 21.6506 60.6214 21.6506C56.0346 21.6506 52.1797 25.4149 52.1797 30.0413C52.1797 34.6677 56.0346 38.432 60.6214 38.432C63.1006 38.432 64.9627 37.6128 66.4266 36.0759C67.9267 34.5629 68.3942 32.4354 68.3942 30.7176C68.3942 30.1842 68.3501 29.6936 68.2714 29.284H60.6214ZM117.675 31.0637C117.233 29.8555 115.868 27.6281 113.088 27.6281C110.334 27.6281 108.04 29.8174 108.04 33.0308C108.04 36.0569 110.31 38.432 113.353 38.432C115.813 38.432 117.233 36.919 117.817 36.0378L115.991 34.8106C115.382 35.7092 114.552 36.3045 113.353 36.3045C112.161 36.3045 111.307 35.7536 110.759 34.6677L117.922 31.6781L117.675 31.0637ZM110.372 32.8625C110.31 30.7795 111.976 29.7126 113.169 29.7126C114.104 29.7126 114.897 30.1842 115.162 30.8589L110.372 32.8625ZM104.549 38.1033H106.904V22.2269H104.549V38.1033ZM100.693 28.8315H100.614C100.085 28.1996 99.0761 27.6281 97.7979 27.6281C95.1157 27.6281 92.6633 30.0032 92.6633 33.0483C92.6633 36.0759 95.1157 38.432 97.7979 38.432C99.0761 38.432 100.085 37.8557 100.614 37.2047H100.693V37.9795C100.693 40.045 99.5987 41.1548 97.8341 41.1548C96.3954 41.1548 95.5029 40.1069 95.1346 39.2258L93.0867 40.0879C93.677 41.5199 95.24 43.2822 97.8341 43.2822C100.595 43.2822 102.925 41.6438 102.925 37.6572V27.9567H100.693V28.8315ZM97.9994 36.3045C96.3765 36.3045 95.0181 34.9344 95.0181 33.0483C95.0181 31.1447 96.3765 29.7555 97.9994 29.7555C99.5987 29.7555 100.859 31.1447 100.859 33.0483C100.859 34.9344 99.5987 36.3045 97.9994 36.3045ZM128.7 22.2269H123.068V38.1033H125.417V32.0878H128.7C131.308 32.0878 133.866 30.1842 133.866 27.1565C133.866 24.1305 131.302 22.2269 128.7 22.2269ZM128.762 29.8793H125.417V24.4353H128.762C130.515 24.4353 131.516 25.9039 131.516 27.1565C131.516 28.3854 130.515 29.8793 128.762 29.8793ZM143.279 27.5979C141.582 27.5979 139.818 28.3536 139.092 30.0286L141.176 30.9097C141.625 30.0286 142.45 29.7428 143.322 29.7428C144.54 29.7428 145.776 30.4811 145.795 31.7845V31.9512C145.37 31.7035 144.46 31.3368 143.341 31.3368C141.096 31.3368 138.809 32.5831 138.809 34.909C138.809 37.0364 140.647 38.4066 142.714 38.4066C144.294 38.4066 145.167 37.6874 145.714 36.8507H145.795V38.0779H148.063V31.9877C148.063 29.1728 145.979 27.5979 143.279 27.5979ZM142.996 36.2982C142.228 36.2982 141.157 35.914 141.157 34.9535C141.157 33.7246 142.492 33.2531 143.648 33.2531C144.682 33.2531 145.167 33.4833 145.795 33.7865C145.61 35.2567 144.356 36.2982 142.996 36.2982ZM156.327 27.9456L153.627 34.828H153.547L150.756 27.9456H148.223L152.417 37.5635L150.024 42.9155H152.478L158.94 27.9456H156.327ZM135.157 38.1033H137.512V22.2269H135.157V38.1033Z" fill="#030734"/>
<path d="M13.6406 9.57525C13.2707 9.96581 13.0566 10.5739 13.0566 11.3614V39.4499C13.0566 40.2374 13.2707 40.8455 13.6406 41.236L13.7319 41.3218L29.3373 25.5882V25.2167L13.7319 9.48317L13.6406 9.57525Z" fill="url(#paint0_linear_2_2375)"/>
<path d="M34.5329 30.8354L29.3369 25.5883V25.2168L34.5392 19.9696L34.6557 20.0379L40.8166 23.5736C42.5749 24.577 42.5749 26.2281 40.8166 27.2378L34.6557 30.7672L34.5329 30.8354Z" fill="url(#paint1_linear_2_2375)"/>
<path d="M34.6556 30.767L29.3368 25.4023L13.6401 41.2359C14.2241 41.8551 15.1764 41.9297 16.2594 41.3105L34.6556 30.767Z" fill="url(#paint2_linear_2_2375)"/>
<path d="M34.6556 20.0377L16.2594 9.49416C15.1764 8.88133 14.2241 8.95595 13.6401 9.57513L29.3368 25.4023L34.6556 20.0377Z" fill="url(#paint3_linear_2_2375)"/>
<defs>
<linearGradient id="paint0_linear_2_2375" x1="27.9517" y1="39.7425" x2="6.63692" y2="18.6099" gradientUnits="userSpaceOnUse">
<stop stop-color="#00A0FF"/>
<stop offset="0.0066" stop-color="#00A1FF"/>
<stop offset="0.2601" stop-color="#00BEFF"/>
<stop offset="0.5122" stop-color="#00D2FF"/>
<stop offset="0.7604" stop-color="#00DFFF"/>
<stop offset="1" stop-color="#00E3FF"/>
</linearGradient>
<linearGradient id="paint1_linear_2_2375" x1="43.1062" y1="25.4008" x2="12.636" y2="25.4008" gradientUnits="userSpaceOnUse">
<stop stop-color="#FFE000"/>
<stop offset="0.4087" stop-color="#FFBD00"/>
<stop offset="0.7754" stop-color="#FFA500"/>
<stop offset="1" stop-color="#FF9C00"/>
</linearGradient>
<linearGradient id="paint2_linear_2_2375" x1="31.7634" y1="22.486" x2="2.8588" y2="-6.17154" gradientUnits="userSpaceOnUse">
<stop stop-color="#FF3A44"/>
<stop offset="1" stop-color="#C31162"/>
</linearGradient>
<linearGradient id="paint3_linear_2_2375" x1="9.68896" y1="50.5809" x2="22.5962" y2="37.7841" gradientUnits="userSpaceOnUse">
<stop stop-color="#32A071"/>
<stop offset="0.0685" stop-color="#2DA771"/>
<stop offset="0.4762" stop-color="#15CF74"/>
<stop offset="0.8009" stop-color="#06E775"/>
<stop offset="1" stop-color="#00F076"/>
</linearGradient>
</defs>
</svg>
